<svg width="104" height="28" viewBox="0 0 104 28" fill="none" xmlns="http://www.w3.org/2000/svg">
<path d="M31.7734 20.7422L33.7188 14.5469H34.2109L33.6953 16.5078L31.6094 23H31.1094L31.7734 20.7422ZM29.2578 14.5469L31.0078 20.75L31.5391 23H31.0391L28.5859 14.5469H29.2578ZM37.0234 20.7422L38.75 14.5469H39.4297L36.9688 23H36.4688L37.0234 20.7422ZM34.2969 14.5469L36.2344 20.7188L36.8984 23H36.3984L34.2812 16.5078L33.7969 14.5469H34.2969ZM44.5234 23.1562C43.9922 23.1562 43.5 23.0547 43.0469 22.8516C42.5938 22.6432 42.1979 22.3542 41.8594 21.9844C41.5208 21.6094 41.2552 21.1667 41.0625 20.6562C40.875 20.1458 40.7812 19.5859 40.7812 18.9766V18.6328C40.7812 18.0026 40.875 17.4297 41.0625 16.9141C41.2552 16.3932 41.5156 15.9453 41.8438 15.5703C42.1719 15.1901 42.5495 14.8984 42.9766 14.6953C43.4089 14.4922 43.8698 14.3906 44.3594 14.3906C44.8542 14.3906 45.3021 14.4818 45.7031 14.6641C46.1042 14.8464 46.4479 15.1016 46.7344 15.4297C47.0208 15.7578 47.2396 16.1484 47.3906 16.6016C47.5417 17.0547 47.6172 17.5547 47.6172 18.1016V18.625H41.1719V18.0547H47V17.9531C46.9948 17.4219 46.8854 16.9297 46.6719 16.4766C46.4635 16.0234 46.1641 15.6589 45.7734 15.3828C45.3828 15.1016 44.9115 14.9609 44.3594 14.9609C43.9167 14.9609 43.513 15.0547 43.1484 15.2422C42.7891 15.4297 42.4792 15.6901 42.2188 16.0234C41.9583 16.3516 41.7578 16.7396 41.6172 17.1875C41.4766 17.6302 41.4062 18.112 41.4062 18.6328V18.9766C41.4062 19.4766 41.4844 19.9453 41.6406 20.3828C41.7969 20.8203 42.0156 21.2057 42.2969 21.5391C42.5781 21.8672 42.9089 22.125 43.2891 22.3125C43.6693 22.5 44.0859 22.5938 44.5391 22.5938C45.0286 22.5938 45.4766 22.5078 45.8828 22.3359C46.2891 22.1641 46.6589 21.862 46.9922 21.4297L47.3984 21.7344C47.2109 22.0052 46.9844 22.2474 46.7188 22.4609C46.4531 22.6745 46.138 22.8438 45.7734 22.9688C45.4141 23.0938 44.9974 23.1562 44.5234 23.1562ZM54.7891 21.4453V17.0781C54.7891 16.6354 54.6953 16.2552 54.5078 15.9375C54.3203 15.6198 54.0469 15.3776 53.6875 15.2109C53.3281 15.0391 52.888 14.9531 52.3672 14.9531C51.8828 14.9531 51.4479 15.0391 51.0625 15.2109C50.6823 15.3776 50.3828 15.6068 50.1641 15.8984C49.9453 16.1901 49.8359 16.5156 49.8359 16.875L49.2109 16.8672C49.2109 16.5443 49.2865 16.2344 49.4375 15.9375C49.5938 15.6406 49.8125 15.3776 50.0938 15.1484C50.3802 14.9141 50.7161 14.7292 51.1016 14.5938C51.4922 14.4583 51.9193 14.3906 52.3828 14.3906C52.9766 14.3906 53.5 14.4922 53.9531 14.6953C54.4115 14.8932 54.7682 15.1927 55.0234 15.5938C55.2786 15.9948 55.4062 16.4948 55.4062 17.0938V21.2656C55.4062 21.5677 55.4271 21.8724 55.4688 22.1797C55.5104 22.487 55.5677 22.7344 55.6406 22.9219V23H54.9609C54.9036 22.8021 54.8594 22.5599 54.8281 22.2734C54.8021 21.987 54.7891 21.7109 54.7891 21.4453ZM54.9922 18.2031L55.0078 18.7422H52.9453C52.4245 18.7422 51.9583 18.7917 51.5469 18.8906C51.1354 18.9896 50.7865 19.1302 50.5 19.3125C50.2135 19.4948 49.9948 19.7109 49.8438 19.9609C49.6927 20.2109 49.6172 20.4922 49.6172 20.8047C49.6172 21.1276 49.7031 21.4245 49.875 21.6953C50.0469 21.9661 50.2891 22.1823 50.6016 22.3438C50.9141 22.5 51.276 22.5781 51.6875 22.5781C52.25 22.5781 52.7474 22.4818 53.1797 22.2891C53.6172 22.0911 53.9844 21.8255 54.2812 21.4922C54.5781 21.1536 54.7943 20.763 54.9297 20.3203L55.2031 20.7734C55.1146 21.0495 54.9766 21.3281 54.7891 21.6094C54.6016 21.8906 54.3594 22.1484 54.0625 22.3828C53.7656 22.612 53.4167 22.7995 53.0156 22.9453C52.6146 23.0859 52.1589 23.1562 51.6484 23.1562C51.112 23.1562 50.6432 23.0573 50.2422 22.8594C49.8464 22.6562 49.5391 22.3802 49.3203 22.0312C49.1016 21.6771 48.9922 21.2734 48.9922 20.8203C48.9922 20.4297 49.0807 20.0729 49.2578 19.75C49.4349 19.4271 49.6901 19.151 50.0234 18.9219C50.362 18.6875 50.7708 18.5104 51.25 18.3906C51.7344 18.2656 52.2786 18.2031 52.8828 18.2031H54.9922ZM61.0469 14.5469V15.1094H57V14.5469H61.0469ZM58.5625 12.3125H59.1875V20.9609C59.1875 21.4141 59.2422 21.7578 59.3516 21.9922C59.4661 22.2214 59.6146 22.3776 59.7969 22.4609C59.9844 22.5391 60.1849 22.5781 60.3984 22.5781C60.5495 22.5781 60.6875 22.5703 60.8125 22.5547C60.9427 22.5391 61.0729 22.5208 61.2031 22.5L61.2578 23.0469C61.1432 23.0833 60.9948 23.1094 60.8125 23.125C60.6302 23.1458 60.4688 23.1562 60.3281 23.1562C59.974 23.1562 59.6641 23.0911 59.3984 22.9609C59.1328 22.8307 58.9271 22.6068 58.7812 22.2891C58.6354 21.9661 58.5625 21.5234 58.5625 20.9609V12.3125ZM63.7578 11V23H63.1406V11H63.7578ZM63.6406 18.125L63.3359 17.7656C63.3828 17.3177 63.4922 16.8906 63.6641 16.4844C63.8411 16.0781 64.0729 15.7188 64.3594 15.4062C64.651 15.0938 64.9896 14.8464 65.375 14.6641C65.7656 14.4818 66.1953 14.3906 66.6641 14.3906C67.0859 14.3906 67.4635 14.4505 67.7969 14.5703C68.1302 14.6849 68.4115 14.8672 68.6406 15.1172C68.875 15.3672 69.0521 15.6901 69.1719 16.0859C69.2917 16.4766 69.3516 16.9531 69.3516 17.5156V23H68.7344V17.5156C68.7344 16.849 68.6432 16.3333 68.4609 15.9688C68.2786 15.599 68.0234 15.3385 67.6953 15.1875C67.3724 15.0365 66.9948 14.9609 66.5625 14.9609C66.0625 14.9609 65.6302 15.0729 65.2656 15.2969C64.9062 15.5156 64.6094 15.7943 64.375 16.1328C64.1406 16.4661 63.9609 16.8125 63.8359 17.1719C63.7161 17.5312 63.651 17.849 63.6406 18.125ZM75.0391 23.1562C74.5078 23.1562 74.0156 23.0547 73.5625 22.8516C73.1094 22.6432 72.7135 22.3542 72.375 21.9844C72.0365 21.6094 71.7708 21.1667 71.5781 20.6562C71.3906 20.1458 71.2969 19.5859 71.2969 18.9766V18.6328C71.2969 18.0026 71.3906 17.4297 71.5781 16.9141C71.7708 16.3932 72.0312 15.9453 72.3594 15.5703C72.6875 15.1901 73.0651 14.8984 73.4922 14.6953C73.9245 14.4922 74.3854 14.3906 74.875 14.3906C75.3698 14.3906 75.8177 14.4818 76.2188 14.6641C76.6198 14.8464 76.9635 15.1016 77.25 15.4297C77.5365 15.7578 77.7552 16.1484 77.9062 16.6016C78.0573 17.0547 78.1328 17.5547 78.1328 18.1016V18.625H71.6875V18.0547H77.5156V17.9531C77.5104 17.4219 77.401 16.9297 77.1875 16.4766C76.9792 16.0234 76.6797 15.6589 76.2891 15.3828C75.8984 15.1016 75.4271 14.9609 74.875 14.9609C74.4323 14.9609 74.0286 15.0547 73.6641 15.2422C73.3047 15.4297 72.9948 15.6901 72.7344 16.0234C72.474 16.3516 72.2734 16.7396 72.1328 17.1875C71.9922 17.6302 71.9219 18.112 71.9219 18.6328V18.9766C71.9219 19.4766 72 19.9453 72.1562 20.3828C72.3125 20.8203 72.5312 21.2057 72.8125 21.5391C73.0938 21.8672 73.4245 22.125 73.8047 22.3125C74.1849 22.5 74.6016 22.5938 75.0547 22.5938C75.5443 22.5938 75.9922 22.5078 76.3984 22.3359C76.8047 22.1641 77.1745 21.862 77.5078 21.4297L77.9141 21.7344C77.7266 22.0052 77.5 22.2474 77.2344 22.4609C76.9688 22.6745 76.6536 22.8438 76.2891 22.9688C75.9297 23.0938 75.513 23.1562 75.0391 23.1562ZM80.6797 15.9844V23H80.0625V14.5469H80.6719L80.6797 15.9844ZM83.8984 14.4844L83.8594 15.0469C83.7656 15.0312 83.6719 15.0182 83.5781 15.0078C83.4844 14.9974 83.3854 14.9922 83.2812 14.9922C82.8333 14.9922 82.4401 15.0807 82.1016 15.2578C81.7682 15.4349 81.487 15.6771 81.2578 15.9844C81.0339 16.2917 80.8646 16.6484 80.75 17.0547C80.6354 17.4609 80.5755 17.8958 80.5703 18.3594L80.2656 18.4219C80.2656 17.8438 80.3255 17.3099 80.4453 16.8203C80.5703 16.3307 80.7578 15.9036 81.0078 15.5391C81.2578 15.1745 81.5729 14.8932 81.9531 14.6953C82.3333 14.4922 82.7812 14.3906 83.2969 14.3906C83.4219 14.3906 83.5365 14.401 83.6406 14.4219C83.7448 14.4375 83.8307 14.4583 83.8984 14.4844ZM87.168 8.78125V23H86.377V8.78125H87.168ZM101.67 8.78125V23H100.879L92.0898 10.1387V23H91.2891V8.78125H92.0898L100.879 21.623V8.78125H101.67Z" fill="black" fill-opacity="0.5"/>
<path d="M18 19.7C18 20.5752 17.6839 21.4146 17.1213 22.0335C16.5587 22.6523 15.7956 23 15 23C14.2044 23 13.4413 22.6523 12.8787 22.0335C12.3161 21.4146 12 20.5752 12 19.7V12M23 12C22.7388 8.98993 21.467 6.19502 19.433 4.16103C17.399 2.12703 14.7489 1 12 1C9.25114 1 6.60096 2.12703 4.56697 4.16103C2.53297 6.19502 1.2612 8.98993 1 12H23Z" stroke="black" stroke-opacity="0.5" stroke-linecap="round" stroke-linejoin="round"/>
</svg>
